# xmcd
# Copyright (C) 1995-1998 Ti Kan
#
# Track frame offsets:
#       150
#       16581
#       31666
#       49559
#       73717
#       98418
#       112383
#       121156
#       137715
#
# Disc length: 2237 seconds
#
# Revision: 0
# Processed by: cddbd v1.5.2PL0 Copyright (c) Steve Scherf et al.
# Submitted via: CD-Transfer v1.0
#
DISCID=6a08bb09
DTITLE=Bon Iver - Justin Vernon
DYEAR=08
DGENRE=
TTITLE0=Flume
TTITLE1=Lump Sum
TTITLE2=Skinny Love
TTITLE3=Wolves, The (Act I And Ii)
TTITLE4=Blindsided
TTITLE5=Creature Fear
TTITLE6=Team
TTITLE7=For Emma
TTITLE8=Re: Stacks
EXTD=
EXTT0=
EXTT1=
EXTT2=
EXTT3=
EXTT4=
EXTT5=
EXTT6=
EXTT7=
EXTT8=
PLAYORDER=
